<svg xmlns="http://www.w3.org/2000/svg" xmlns:xlink="http://www.w3.org/1999/xlink" width="858" height="442.8000000000002" style=""><rect id="backgroundrect" width="100%" height="100%" x="0" y="0" fill="none" stroke="none"/>
<g id="graph0" class="graph currentLayer" transform="scale(1) translate(36,300) " style="">
<title>models_diagram</title>
<polygon fill="#ffffff" stroke="transparent" points="-32.80000925064087,147.999990940094 -32.80000925064087,-296.7999815940857 829.0999031066895,-296.7999815940857 829.0999031066895,147.999990940094 -32.80000925064087,147.999990940094 " id="svg_1" class=""/>
<!-- User -->
<g id="node1" class="node">
<title transform="translate(-40.79999923706055,2.4000000953674316) translate(0,-0.800000011920929) translate(-18.399999618530273,-16.799999237060547) translate(-24,-39.20000076293945) translate(-75.19999694824219,20.799999237060547) ">User</title>
<polygon fill="#add8e6" stroke="transparent" points="362.5999946594238,-275.59996938705444 362.5999946594238,-297.59996938705444 490.5999641418457,-297.59996938705444 490.5999641418457,-275.59996938705444 362.5999946594238,-275.59996938705444 " id="svg_2"/>
<polygon fill="none" stroke="#000000" points="362.5999946594238,-275.59996938705444 362.5999946594238,-297.59996938705444 490.5999641418457,-297.59996938705444 490.5999641418457,-275.59996938705444 362.5999946594238,-275.59996938705444 " id="svg_3"/>
<text text-anchor="start" x="417.162004196167" y="-284.60000067949295" font-family="Times,serif" font-weight="bold" font-size="10.00" fill="#000000" id="svg_4">User</text>
<polygon fill="none" stroke="#000000" points="362.5999946594238,-253.59999990463257 362.5999946594238,-275.59996938705444 490.5999641418457,-275.59996938705444 490.5999641418457,-253.59999990463257 362.5999946594238,-253.59999990463257 " id="svg_5"/>
<text text-anchor="start" x="367.600004196167" y="-262.60000067949295" font-family="Times,serif" text-decoration="underline" font-size="10.00" fill="#000000" id="svg_6">id</text>
<text text-anchor="start" x="375.379004196167" y="-262.60000067949295" font-family="Times,serif" font-size="10.00" fill="#000000" id="svg_7">: NUMBER</text>
<polygon fill="none" stroke="#000000" points="362.5999946594238,-231.59999990463257 362.5999946594238,-253.59999990463257 490.5999641418457,-253.59999990463257 490.5999641418457,-231.59999990463257 362.5999946594238,-231.59999990463257 " id="svg_8"/>
<text text-anchor="start" x="367.600004196167" y="-239.60000067949295" font-family="Times,serif" font-size="10.00" fill="#000000" id="svg_9">user_name: STRING</text>
<polygon fill="none" stroke="#000000" points="362.5999946594238,-209.59999990463257 362.5999946594238,-231.59999990463257 490.5999641418457,-231.59999990463257 490.5999641418457,-209.59999990463257 362.5999946594238,-209.59999990463257 " id="svg_10"/>
<text text-anchor="start" x="367.600004196167" y="-217.60000067949295" font-family="Times,serif" font-size="10.00" fill="#000000" id="svg_11">name: STRING</text>
<polygon fill="none" stroke="#000000" points="362.5999946594238,-187.59999990463257 362.5999946594238,-209.59999990463257 490.5999641418457,-209.59999990463257 490.5999641418457,-187.59999990463257 362.5999946594238,-187.59999990463257 " id="svg_12"/>
<text text-anchor="start" x="367.600004196167" y="-195.60000067949295" font-family="Times,serif" font-size="10.00" fill="#000000" id="svg_13">password: STRING</text>
<polygon fill="none" stroke="#000000" points="362.5999946594238,-165.59999990463257 362.5999946594238,-187.59999990463257 490.5999641418457,-187.59999990463257 490.5999641418457,-165.59999990463257 362.5999946594238,-165.59999990463257 " id="svg_14"/>
<text text-anchor="start" x="367.600004196167" y="-173.60000067949295" font-family="Times,serif" font-size="10.00" fill="#000000" id="svg_15">wishlist: STRING</text>
<polygon fill="none" stroke="#000000" points="362.5999946594238,-143.59999990463257 362.5999946594238,-165.59999990463257 490.5999641418457,-165.59999990463257 490.5999641418457,-143.59999990463257 362.5999946594238,-143.59999990463257 " id="svg_16"/>
<text text-anchor="start" x="367.589004196167" y="-152.60000067949295" font-family="Times,serif" font-style="italic" text-decoration="underline" font-size="10.00" fill="#000000" id="svg_17">picture_avatar_id</text>
<text text-anchor="start" x="437.55800419616696" y="-152.60000067949295" font-family="Times,serif" font-size="10.00" fill="#000000" id="svg_18">: NUMBER</text>
<polygon fill="none" stroke="#000000" points="362.5999946594238,-121.59999990463257 362.5999946594238,-143.59999990463257 490.5999641418457,-143.59999990463257 490.5999641418457,-121.59999990463257 362.5999946594238,-121.59999990463257 " id="svg_19"/>
<text text-anchor="start" x="367.600004196167" y="-129.60000067949295" font-family="Times,serif" font-size="10.00" fill="#000000" id="svg_20">facebook: STRING</text>
<polygon fill="none" stroke="#000000" points="362.5999946594238,-99.59999990463257 362.5999946594238,-121.59999990463257 490.5999641418457,-121.59999990463257 490.5999641418457,-99.59999990463257 362.5999946594238,-99.59999990463257 " id="svg_21"/>
<text text-anchor="start" x="367.600004196167" y="-107.60000067949295" font-family="Times,serif" font-size="10.00" fill="#000000" id="svg_22">instagram: STRING</text>
<polygon fill="none" stroke="#000000" points="362.5999946594238,-77.59999990463257 362.5999946594238,-99.59999990463257 490.5999641418457,-99.59999990463257 490.5999641418457,-77.59999990463257 362.5999946594238,-77.59999990463257 " id="svg_23"/>
<text text-anchor="start" x="367.600004196167" y="-85.60000067949295" font-family="Times,serif" font-size="10.00" fill="#000000" id="svg_24">whatsapp: STRING</text>
<polygon fill="none" stroke="#000000" points="362.5999946594238,-55.59999990463257 362.5999946594238,-77.59999990463257 490.5999641418457,-77.59999990463257 490.5999641418457,-55.59999990463257 362.5999946594238,-55.59999990463257 " id="svg_25"/>
<text text-anchor="start" x="367.600004196167" y="-63.60000067949295" font-family="Times,serif" font-size="10.00" fill="#000000" id="svg_26">createdAt: DATE</text>
<polygon fill="none" stroke="#000000" points="362.5999946594238,-33.59999990463257 362.5999946594238,-55.59999990463257 490.5999641418457,-55.59999990463257 490.5999641418457,-33.59999990463257 362.5999946594238,-33.59999990463257 " id="svg_27"/>
<text text-anchor="start" x="367.600004196167" y="-41.60000067949295" font-family="Times,serif" font-size="10.00" fill="#000000" id="svg_28">updatedAt: DATE</text>
</g>
<!-- AppPicture -->
<g id="node4" class="node">
<title transform="translate(-40.79999923706055,2.4000000953674316) translate(0,-0.800000011920929) translate(-18.399999618530273,-16.799999237060547) translate(-24,-39.20000076293945) translate(-75.19999694824219,20.799999237060547) translate(-144,39.20000076293945) translate(0,-0.800000011920929) translate(0,0.800000011920929) ">AppPicture</title>
<polygon fill="#add8e6" stroke="transparent" points="644.5999641418457,-181.40000295639038 644.5999641418457,-203.40000295639038 753.5999641418457,-203.40000295639038 753.5999641418457,-181.40000295639038 644.5999641418457,-181.40000295639038 " id="svg_29"/>
<polygon fill="none" stroke="#000000" points="644.5999641418457,-181.40000295639038 644.5999641418457,-203.40000295639038 753.5999641418457,-203.40000295639038 753.5999641418457,-181.40000295639038 644.5999641418457,-181.40000295639038 " id="svg_30"/>
<text text-anchor="start" x="676.328504196167" y="-190.3999999165535" font-family="Times,serif" font-weight="bold" font-size="10.00" fill="#000000" id="svg_31">AppPicture</text>
<polygon fill="none" stroke="#000000" points="644.5999641418457,-159.40000295639038 644.5999641418457,-181.40000295639038 753.5999641418457,-181.40000295639038 753.5999641418457,-159.40000295639038 644.5999641418457,-159.40000295639038 " id="svg_32"/>
<text text-anchor="start" x="649.600004196167" y="-168.3999999165535" font-family="Times,serif" text-decoration="underline" font-size="10.00" fill="#000000" id="svg_33">id</text>
<text text-anchor="start" x="657.379004196167" y="-168.3999999165535" font-family="Times,serif" font-size="10.00" fill="#000000" id="svg_34">: NUMBER</text>
<polygon fill="none" stroke="#000000" points="644.5999641418457,-137.40000295639038 644.5999641418457,-159.40000295639038 753.5999641418457,-159.40000295639038 753.5999641418457,-137.40000295639038 644.5999641418457,-137.40000295639038 " id="svg_35"/>
<text text-anchor="start" x="649.600004196167" y="-145.3999999165535" font-family="Times,serif" font-size="10.00" fill="#000000" id="svg_36">url: STRING</text>
<polygon fill="none" stroke="#000000" points="644.5999641418457,-115.40000295639038 644.5999641418457,-137.40000295639038 753.5999641418457,-137.40000295639038 753.5999641418457,-115.40000295639038 644.5999641418457,-115.40000295639038 " id="svg_37"/>
<text text-anchor="start" x="649.600004196167" y="-123.3999999165535" font-family="Times,serif" font-size="10.00" fill="#000000" id="svg_38">key: STRING</text>
<polygon fill="none" stroke="#000000" points="644.5999641418457,-93.40000295639038 644.5999641418457,-115.40000295639038 753.5999641418457,-115.40000295639038 753.5999641418457,-93.40000295639038 644.5999641418457,-93.40000295639038 " id="svg_39"/>
<text text-anchor="start" x="649.527504196167" y="-101.3999999165535" font-family="Times,serif" font-size="10.00" fill="#000000" id="svg_40">original_name: STRING</text>
<polygon fill="none" stroke="#000000" points="644.5999641418457,-71.40000295639038 644.5999641418457,-93.40000295639038 753.5999641418457,-93.40000295639038 753.5999641418457,-71.40000295639038 644.5999641418457,-71.40000295639038 " id="svg_41"/>
<text text-anchor="start" x="649.600004196167" y="-79.3999999165535" font-family="Times,serif" font-size="10.00" fill="#000000" id="svg_42">createdAt: DATE</text>
<polygon fill="none" stroke="#000000" points="644.5999641418457,-49.399999141693115 644.5999641418457,-71.40000295639038 753.5999641418457,-71.40000295639038 753.5999641418457,-49.399999141693115 644.5999641418457,-49.399999141693115 " id="svg_43"/>
<text text-anchor="start" x="649.600004196167" y="-57.3999999165535" font-family="Times,serif" font-size="10.00" fill="#000000" id="svg_44">updatedAt: DATE</text>
</g>
<!-- User&#45;&gt;AppPicture -->
<g id="edge1" class="edge">
<title transform="translate(-40.79999923706055,2.4000000953674316) translate(0,-0.800000011920929) translate(-18.399999618530273,-16.799999237060547) translate(-24,-39.20000076293945) translate(-75.19999694824219,20.799999237060547) translate(649.0883178710938,-134.6999969482422) scale(0.5157642960548401,1) translate(-649.0883178710938,134.6999969482422) ">User-&gt;AppPicture</title>
<path fill="none" stroke="#000000" stroke-width=".75" d="M493.9459832967302,-165.60000067949295 C536.3389201523802,-165.60000067949295 605.5444828555962,-165.60000067949295 644.0641845771631,-165.60000067949295 " id="svg_45"/>
<polygon fill="#000000" stroke="#000000" stroke-width=".75" points="493.78288650512695,-165.60012197494507 490.6883430480957,-162.90000295639038 492.2355842590332,-165.59999990463257 490.68828201293945,-165.59999990463257 490.68828201293945,-165.59999990463257 490.68828201293945,-165.59999990463257 492.2355842590332,-165.59999990463257 490.68828201293945,-168.29999685287476 493.78288650512695,-165.60012197494507 493.78288650512695,-165.60012197494507 " id="svg_46"/>
</g>
<!-- AmGrupo -->
<g id="node2" class="node">
<title transform="translate(-40.79999923706055,2.4000000953674316) translate(0,-0.800000011920929) translate(-18.399999618530273,-16.799999237060547) translate(-24,-39.20000076293945) translate(-75.19999694824219,20.799999237060547) translate(196.8000030517578,3.200000047683716) ">AmGrupo</title>
<polygon fill="#add8e6" stroke="transparent" points="38.40000534057617,-228.40000295639038 38.40000534057617,-250.40000295639038 128.39999771118164,-250.40000295639038 128.39999771118164,-228.40000295639038 38.40000534057617,-228.40000295639038 " id="svg_47"/>
<polygon fill="none" stroke="#000000" points="38.40000534057617,-228.40000295639038 38.40000534057617,-250.40000295639038 128.39999771118164,-250.40000295639038 128.39999771118164,-228.40000295639038 38.40000534057617,-228.40000295639038 " id="svg_48"/>
<text text-anchor="start" x="63.12700724792481" y="-237.40000063180923" font-family="Times,serif" font-weight="bold" font-size="10.00" fill="#000000" id="svg_49">AmGrupo</text>
<polygon fill="none" stroke="#000000" points="38.40000534057617,-206.40000295639038 38.40000534057617,-228.40000295639038 128.39999771118164,-228.40000295639038 128.39999771118164,-206.40000295639038 38.40000534057617,-206.40000295639038 " id="svg_50"/>
<text text-anchor="start" x="43.400007247924805" y="-215.40000063180923" font-family="Times,serif" text-decoration="underline" font-size="10.00" fill="#000000" id="svg_51">id</text>
<text text-anchor="start" x="51.1790072479248" y="-215.40000063180923" font-family="Times,serif" font-size="10.00" fill="#000000" id="svg_52">: NUMBER</text>
<polygon fill="none" stroke="#000000" points="38.40000534057617,-184.40000295639038 38.40000534057617,-206.40000295639038 128.39999771118164,-206.40000295639038 128.39999771118164,-184.40000295639038 38.40000534057617,-184.40000295639038 " id="svg_53"/>
<text text-anchor="start" x="42.98400724792481" y="-192.40000063180923" font-family="Times,serif" font-size="10.00" fill="#000000" id="svg_54">id_dono: NUMBER</text>
<polygon fill="none" stroke="#000000" points="38.40000534057617,-162.40000295639038 38.40000534057617,-184.40000295639038 128.39999771118164,-184.40000295639038 128.39999771118164,-162.40000295639038 38.40000534057617,-162.40000295639038 " id="svg_55"/>
<text text-anchor="start" x="43.400007247924805" y="-170.40000063180923" font-family="Times,serif" font-size="10.00" fill="#000000" id="svg_56">name: STRING</text>
<polygon fill="none" stroke="#000000" points="38.40000534057617,-140.40000295639038 38.40000534057617,-162.40000295639038 128.39999771118164,-162.40000295639038 128.39999771118164,-140.40000295639038 38.40000534057617,-140.40000295639038 " id="svg_57"/>
<text text-anchor="start" x="43.400007247924805" y="-148.40000063180923" font-family="Times,serif" font-size="10.00" fill="#000000" id="svg_58">chave: STRING</text>
<polygon fill="none" stroke="#000000" points="38.40000534057617,-118.40000295639038 38.40000534057617,-140.40000295639038 128.39999771118164,-140.40000295639038 128.39999771118164,-118.40000295639038 38.40000534057617,-118.40000295639038 " id="svg_59"/>
<text text-anchor="start" x="43.400007247924805" y="-126.40000063180923" font-family="Times,serif" font-size="10.00" fill="#000000" id="svg_60">drawn_at: DATE</text>
<polygon fill="none" stroke="#000000" points="38.40000534057617,-96.40000295639038 38.40000534057617,-118.40000295639038 128.39999771118164,-118.40000295639038 128.39999771118164,-96.40000295639038 38.40000534057617,-96.40000295639038 " id="svg_61"/>
<text text-anchor="start" x="43.400007247924805" y="-104.40000063180923" font-family="Times,serif" font-size="10.00" fill="#000000" id="svg_62">createdAt: DATE</text>
<polygon fill="none" stroke="#000000" points="38.40000534057617,-74.40000295639038 38.40000534057617,-96.40000295639038 128.39999771118164,-96.40000295639038 128.39999771118164,-74.40000295639038 38.40000534057617,-74.40000295639038 " id="svg_63"/>
<text text-anchor="start" x="43.400007247924805" y="-82.40000063180923" font-family="Times,serif" font-size="10.00" fill="#000000" id="svg_64">updatedAt: DATE</text>
</g>
<!-- UserGrupo -->
<g id="node3" class="node">
<title transform="translate(-40.79999923706055,2.4000000953674316) translate(0,-0.800000011920929) translate(-18.399999618530273,-16.799999237060547) translate(-24,-39.20000076293945) translate(-75.19999694824219,20.799999237060547) translate(0,-7.199999809265137) translate(4,-25.600000381469727) translate(92,243.1999969482422) ">UserGrupo</title>
<polygon fill="#add8e6" stroke="transparent" points="172.6000099182129,-21.200002193450928 172.6000099182129,-43.20000219345093 289.5999946594238,-43.20000219345093 289.5999946594238,-21.200002193450928 172.6000099182129,-21.200002193450928 " id="svg_65"/>
<polygon fill="none" stroke="#000000" points="172.6000099182129,-21.200002193450928 172.6000099182129,-43.20000219345093 289.5999946594238,-43.20000219345093 289.5999946594238,-21.200002193450928 172.6000099182129,-21.200002193450928 " id="svg_66"/>
<text text-anchor="start" x="208.888004196167" y="-30.200003921985626" font-family="Times,serif" font-weight="bold" font-size="10.00" fill="#000000" id="svg_67">UserGrupo</text>
<polygon fill="none" stroke="#000000" points="172.6000099182129,0.799997091293335 172.6000099182129,-21.200002193450928 289.5999946594238,-21.200002193450928 289.5999946594238,0.799997091293335 172.6000099182129,0.799997091293335 " id="svg_68"/>
<text text-anchor="start" x="177.600004196167" y="-8.200003921985626" font-family="Times,serif" text-decoration="underline" font-size="10.00" fill="#000000" id="svg_69">id</text>
<text text-anchor="start" x="185.379004196167" y="-8.200003921985626" font-family="Times,serif" font-size="10.00" fill="#000000" id="svg_70">: NUMBER</text>
<polygon fill="none" stroke="#000000" points="172.6000099182129,22.799997806549072 172.6000099182129,0.799997091293335 289.5999946594238,0.799997091293335 289.5999946594238,22.799997806549072 172.6000099182129,22.799997806549072 " id="svg_71"/>
<text text-anchor="start" x="177.600004196167" y="13.799996078014374" font-family="Times,serif" font-style="italic" text-decoration="underline" font-size="10.00" fill="#000000" id="svg_72">grupo_id</text>
<text text-anchor="start" x="213.708004196167" y="13.799996078014374" font-family="Times,serif" font-size="10.00" fill="#000000" id="svg_73">: NUMBER</text>
<polygon fill="none" stroke="#000000" points="172.6000099182129,44.79999780654907 172.6000099182129,22.799997806549072 289.5999946594238,22.799997806549072 289.5999946594238,44.79999780654907 172.6000099182129,44.79999780654907 " id="svg_74"/>
<text text-anchor="start" x="177.600004196167" y="35.799996078014374" font-family="Times,serif" font-style="italic" text-decoration="underline" font-size="10.00" fill="#000000" id="svg_75">user_id</text>
<text text-anchor="start" x="207.03600419616697" y="35.799996078014374" font-family="Times,serif" font-size="10.00" fill="#000000" id="svg_76">: NUMBER</text>
<polygon fill="none" stroke="#000000" points="172.6000099182129,66.7999939918518 172.6000099182129,44.79999780654907 289.5999946594238,44.79999780654907 289.5999946594238,66.7999939918518 172.6000099182129,66.7999939918518 " id="svg_77"/>
<text text-anchor="start" x="177.362004196167" y="57.799996078014374" font-family="Times,serif" font-style="italic" text-decoration="underline" font-size="10.00" fill="#000000" id="svg_78">drawn_user_id</text>
<text text-anchor="start" x="236.785004196167" y="57.799996078014374" font-family="Times,serif" font-size="10.00" fill="#000000" id="svg_79">: NUMBER</text>
<polygon fill="none" stroke="#000000" points="172.6000099182129,88.7999939918518 172.6000099182129,66.7999939918518 289.5999946594238,66.7999939918518 289.5999946594238,88.7999939918518 172.6000099182129,88.7999939918518 " id="svg_80"/>
<text text-anchor="start" x="177.600004196167" y="80.79999607801437" font-family="Times,serif" font-size="10.00" fill="#000000" id="svg_81">createdAt: DATE</text>
<polygon fill="none" stroke="#000000" points="172.6000099182129,110.7999939918518 172.6000099182129,88.7999939918518 289.5999946594238,88.7999939918518 289.5999946594238,110.7999939918518 172.6000099182129,110.7999939918518 " id="svg_82"/>
<text text-anchor="start" x="177.600004196167" y="102.79999607801437" font-family="Times,serif" font-size="10.00" fill="#000000" id="svg_83">updatedAt: DATE</text>
<polygon fill="none" stroke="#000000" points="172.6000099182129,132.7999939918518 172.6000099182129,110.7999939918518 289.5999946594238,110.7999939918518 289.5999946594238,132.7999939918518 172.6000099182129,132.7999939918518 " id="svg_84"/>
<text text-anchor="start" x="177.600004196167" y="123.79999607801437" font-family="Times,serif" font-style="italic" text-decoration="underline" font-size="10.00" fill="#000000" id="svg_85">userId</text>
<text text-anchor="start" x="202.58600419616698" y="123.79999607801437" font-family="Times,serif" font-size="10.00" fill="#000000" id="svg_86">: NUMBER</text>
</g>
<!-- UserGrupo&#45;&gt;User -->
<g id="edge2" class="edge" transform="rotate(-65.42184448242188 325.8580932617188,-46.4000015258789) ">
<title transform="translate(-40.79999923706055,2.4000000953674316) translate(0,-0.800000011920929) translate(-18.399999618530273,-16.799999237060547) translate(-24,-39.20000076293945) translate(-75.19999694824219,20.799999237060547) translate(48,120) translate(0,-0.800000011920929) ">UserGrupo-&gt;User</title>
<path fill="none" stroke="#000000" stroke-width=".75" d="M247.465704196167,-46.40000069141388 C295.982904196167,-46.40000069141388 362.01510419616693,-46.40000069141388 410.376804196167,-46.40000069141388 " id="svg_87"/>
<polygon fill="#000000" stroke="#000000" stroke-width=".75" points="247.33928298950195,-46.40010976791382 241.33928298950195,-43.70000600814819 244.33928298950195,-46.40000295639038 241.33928298950195,-46.40000295639038 241.33928298950195,-46.40000295639038 241.33928298950195,-46.40000295639038 244.33928298950195,-46.40000295639038 241.33928298950195,-49.09999990463257 247.33928298950195,-46.40010976791382 247.33928298950195,-46.40010976791382 " id="svg_88"/>
</g>
<!-- UserGrupo&#45;&gt;AmGrupo -->
<g id="edge3" class="edge" transform="rotate(73.96369171142578 149.39959716796875,-51.20000457763671) ">
<title transform="translate(-40.79999923706055,2.4000000953674316) translate(0,-0.800000011920929) translate(-18.399999618530273,-16.799999237060547) translate(-24,-39.20000076293945) translate(-75.19999694824219,20.799999237060547) translate(145.60000610351562,115.19999694824219) translate(0,-0.800000011920929) ">UserGrupo-&gt;AmGrupo</title>
<path fill="none" stroke="#000000" stroke-width=".75" d="M215.39191029968265,-51.20000374317169 C172.0021102996826,-51.20000374317169 115.97891029968264,-51.20000374317169 77.3717102996826,-51.20000374317169 " id="svg_89"/>
<polygon fill="#000000" stroke="#000000" stroke-width=".75" points="215.42753982543945,-51.20011281967163 221.42753982543945,-53.90000295639038 218.42753982543945,-51.20000600814819 221.42753982543945,-51.20000600814819 221.42753982543945,-51.20000600814819 221.42753982543945,-51.20000600814819 218.42753982543945,-51.20000600814819 221.42738723754883,-48.500009059906006 215.42753982543945,-51.20011281967163 215.42753982543945,-51.20011281967163 " id="svg_90"/>
</g>
<path fill="" fill-opacity="1" stroke="#000000" stroke-opacity="1" stroke-width="1" stroke-dasharray="none" stroke-linejoin="miter" stroke-linecap="butt" stroke-dashoffset="" fill-rule="nonzero" opacity="1" marker-start="" marker-mid="" marker-end="" d="M299.400004196167,43.599999320507095 L299.400004196167,44.39999932050705 " id="svg_93" class=""/></g>
</svg>