<?xml version="1.0" encoding="UTF-8" standalone="no"?>
<!DOCTYPE svg PUBLIC "-//W3C//DTD SVG 1.1//EN"
 "http://www.w3.org/Graphics/SVG/1.1/DTD/svg11.dtd">
<!-- Generated by graphviz version 2.40.1 (20161225.0304)
 -->
<!-- Title: models_diagram Pages: 1 -->
<svg width="1128pt" height="336pt"
 viewBox="0.00 0.00 1127.50 336.00" xmlns="http://www.w3.org/2000/svg" xmlns:xlink="http://www.w3.org/1999/xlink">
<g id="graph0" class="graph" transform="scale(1 1) rotate(0) translate(36 300)">
<title>models_diagram</title>
<polygon fill="#ffffff" stroke="transparent" points="-36,36 -36,-300 1091.5,-300 1091.5,36 -36,36"/>
<!-- User -->
<g id="node1" class="node">
<title>User</title>
<polygon fill="#add8e6" stroke="transparent" points="521,-242 521,-264 649,-264 649,-242 521,-242"/>
<polygon fill="none" stroke="#000000" points="521,-242 521,-264 649,-264 649,-242 521,-242"/>
<text text-anchor="start" x="575.562" y="-251" font-family="Times,serif" font-weight="bold" font-size="10.00" fill="#000000">User</text>
<polygon fill="none" stroke="#000000" points="521,-220 521,-242 649,-242 649,-220 521,-220"/>
<text text-anchor="start" x="526" y="-229" font-family="Times,serif" text-decoration="underline" font-size="10.00" fill="#000000">id</text>
<text text-anchor="start" x="533.779" y="-229" font-family="Times,serif" font-size="10.00" fill="#000000">: NUMBER</text>
<polygon fill="none" stroke="#000000" points="521,-198 521,-220 649,-220 649,-198 521,-198"/>
<text text-anchor="start" x="526" y="-206" font-family="Times,serif" font-size="10.00" fill="#000000">user_name: STRING</text>
<polygon fill="none" stroke="#000000" points="521,-176 521,-198 649,-198 649,-176 521,-176"/>
<text text-anchor="start" x="526" y="-184" font-family="Times,serif" font-size="10.00" fill="#000000">name: STRING</text>
<polygon fill="none" stroke="#000000" points="521,-154 521,-176 649,-176 649,-154 521,-154"/>
<text text-anchor="start" x="526" y="-162" font-family="Times,serif" font-size="10.00" fill="#000000">password: STRING</text>
<polygon fill="none" stroke="#000000" points="521,-132 521,-154 649,-154 649,-132 521,-132"/>
<text text-anchor="start" x="526" y="-140" font-family="Times,serif" font-size="10.00" fill="#000000">wishlist: STRING</text>
<polygon fill="none" stroke="#000000" points="521,-110 521,-132 649,-132 649,-110 521,-110"/>
<text text-anchor="start" x="525.989" y="-119" font-family="Times,serif" font-style="italic" text-decoration="underline" font-size="10.00" fill="#000000">picture_avatar_id</text>
<text text-anchor="start" x="595.958" y="-119" font-family="Times,serif" font-size="10.00" fill="#000000">: NUMBER</text>
<polygon fill="none" stroke="#000000" points="521,-88 521,-110 649,-110 649,-88 521,-88"/>
<text text-anchor="start" x="526" y="-96" font-family="Times,serif" font-size="10.00" fill="#000000">facebook: STRING</text>
<polygon fill="none" stroke="#000000" points="521,-66 521,-88 649,-88 649,-66 521,-66"/>
<text text-anchor="start" x="526" y="-74" font-family="Times,serif" font-size="10.00" fill="#000000">instagram: STRING</text>
<polygon fill="none" stroke="#000000" points="521,-44 521,-66 649,-66 649,-44 521,-44"/>
<text text-anchor="start" x="526" y="-52" font-family="Times,serif" font-size="10.00" fill="#000000">whatsapp: STRING</text>
<polygon fill="none" stroke="#000000" points="521,-22 521,-44 649,-44 649,-22 521,-22"/>
<text text-anchor="start" x="526" y="-30" font-family="Times,serif" font-size="10.00" fill="#000000">createdAt: DATE</text>
<polygon fill="none" stroke="#000000" points="521,0 521,-22 649,-22 649,0 521,0"/>
<text text-anchor="start" x="526" y="-8" font-family="Times,serif" font-size="10.00" fill="#000000">updatedAt: DATE</text>
</g>
<!-- AppPicture -->
<g id="node4" class="node">
<title>AppPicture</title>
<polygon fill="#add8e6" stroke="transparent" points="947,-187 947,-209 1056,-209 1056,-187 947,-187"/>
<polygon fill="none" stroke="#000000" points="947,-187 947,-209 1056,-209 1056,-187 947,-187"/>
<text text-anchor="start" x="978.7285" y="-196" font-family="Times,serif" font-weight="bold" font-size="10.00" fill="#000000">AppPicture</text>
<polygon fill="none" stroke="#000000" points="947,-165 947,-187 1056,-187 1056,-165 947,-165"/>
<text text-anchor="start" x="952" y="-174" font-family="Times,serif" text-decoration="underline" font-size="10.00" fill="#000000">id</text>
<text text-anchor="start" x="959.779" y="-174" font-family="Times,serif" font-size="10.00" fill="#000000">: NUMBER</text>
<polygon fill="none" stroke="#000000" points="947,-143 947,-165 1056,-165 1056,-143 947,-143"/>
<text text-anchor="start" x="952" y="-151" font-family="Times,serif" font-size="10.00" fill="#000000">url: STRING</text>
<polygon fill="none" stroke="#000000" points="947,-121 947,-143 1056,-143 1056,-121 947,-121"/>
<text text-anchor="start" x="952" y="-129" font-family="Times,serif" font-size="10.00" fill="#000000">key: STRING</text>
<polygon fill="none" stroke="#000000" points="947,-99 947,-121 1056,-121 1056,-99 947,-99"/>
<text text-anchor="start" x="951.9275" y="-107" font-family="Times,serif" font-size="10.00" fill="#000000">original_name: STRING</text>
<polygon fill="none" stroke="#000000" points="947,-77 947,-99 1056,-99 1056,-77 947,-77"/>
<text text-anchor="start" x="952" y="-85" font-family="Times,serif" font-size="10.00" fill="#000000">createdAt: DATE</text>
<polygon fill="none" stroke="#000000" points="947,-55 947,-77 1056,-77 1056,-55 947,-55"/>
<text text-anchor="start" x="952" y="-63" font-family="Times,serif" font-size="10.00" fill="#000000">updatedAt: DATE</text>
</g>
<!-- User&#45;&gt;AppPicture -->
<g id="edge1" class="edge">
<title>User&#45;&gt;AppPicture</title>
<path fill="none" stroke="#000000" stroke-width=".75" d="M655.4045,-132C737.5989,-132 871.7795,-132 946.4642,-132"/>
<polygon fill="#000000" stroke="#000000" stroke-width=".75" points="655.0883,-132.0001 649.0884,-129.3 652.0883,-132 649.0883,-132 649.0883,-132 649.0883,-132 652.0883,-132 649.0883,-134.7 655.0883,-132.0001 655.0883,-132.0001"/>
</g>
<!-- AmGrupo -->
<g id="node2" class="node">
<title>AmGrupo</title>
<polygon fill="#add8e6" stroke="transparent" points="0,-198 0,-220 90,-220 90,-198 0,-198"/>
<polygon fill="none" stroke="#000000" points="0,-198 0,-220 90,-220 90,-198 0,-198"/>
<text text-anchor="start" x="24.727" y="-207" font-family="Times,serif" font-weight="bold" font-size="10.00" fill="#000000">AmGrupo</text>
<polygon fill="none" stroke="#000000" points="0,-176 0,-198 90,-198 90,-176 0,-176"/>
<text text-anchor="start" x="5" y="-185" font-family="Times,serif" text-decoration="underline" font-size="10.00" fill="#000000">id</text>
<text text-anchor="start" x="12.779" y="-185" font-family="Times,serif" font-size="10.00" fill="#000000">: NUMBER</text>
<polygon fill="none" stroke="#000000" points="0,-154 0,-176 90,-176 90,-154 0,-154"/>
<text text-anchor="start" x="4.584" y="-162" font-family="Times,serif" font-size="10.00" fill="#000000">id_dono: NUMBER</text>
<polygon fill="none" stroke="#000000" points="0,-132 0,-154 90,-154 90,-132 0,-132"/>
<text text-anchor="start" x="5" y="-140" font-family="Times,serif" font-size="10.00" fill="#000000">name: STRING</text>
<polygon fill="none" stroke="#000000" points="0,-110 0,-132 90,-132 90,-110 0,-110"/>
<text text-anchor="start" x="5" y="-118" font-family="Times,serif" font-size="10.00" fill="#000000">chave: STRING</text>
<polygon fill="none" stroke="#000000" points="0,-88 0,-110 90,-110 90,-88 0,-88"/>
<text text-anchor="start" x="5" y="-96" font-family="Times,serif" font-size="10.00" fill="#000000">drawn_at: DATE</text>
<polygon fill="none" stroke="#000000" points="0,-66 0,-88 90,-88 90,-66 0,-66"/>
<text text-anchor="start" x="5" y="-74" font-family="Times,serif" font-size="10.00" fill="#000000">createdAt: DATE</text>
<polygon fill="none" stroke="#000000" points="0,-44 0,-66 90,-66 90,-44 0,-44"/>
<text text-anchor="start" x="5" y="-52" font-family="Times,serif" font-size="10.00" fill="#000000">updatedAt: DATE</text>
</g>
<!-- UserGrupo -->
<g id="node3" class="node">
<title>UserGrupo</title>
<polygon fill="#add8e6" stroke="transparent" points="235,-198 235,-220 352,-220 352,-198 235,-198"/>
<polygon fill="none" stroke="#000000" points="235,-198 235,-220 352,-220 352,-198 235,-198"/>
<text text-anchor="start" x="271.288" y="-207" font-family="Times,serif" font-weight="bold" font-size="10.00" fill="#000000">UserGrupo</text>
<polygon fill="none" stroke="#000000" points="235,-176 235,-198 352,-198 352,-176 235,-176"/>
<text text-anchor="start" x="240" y="-185" font-family="Times,serif" text-decoration="underline" font-size="10.00" fill="#000000">id</text>
<text text-anchor="start" x="247.779" y="-185" font-family="Times,serif" font-size="10.00" fill="#000000">: NUMBER</text>
<polygon fill="none" stroke="#000000" points="235,-154 235,-176 352,-176 352,-154 235,-154"/>
<text text-anchor="start" x="240" y="-163" font-family="Times,serif" font-style="italic" text-decoration="underline" font-size="10.00" fill="#000000">grupo_id</text>
<text text-anchor="start" x="276.108" y="-163" font-family="Times,serif" font-size="10.00" fill="#000000">: NUMBER</text>
<polygon fill="none" stroke="#000000" points="235,-132 235,-154 352,-154 352,-132 235,-132"/>
<text text-anchor="start" x="240" y="-141" font-family="Times,serif" font-style="italic" text-decoration="underline" font-size="10.00" fill="#000000">user_id</text>
<text text-anchor="start" x="269.436" y="-141" font-family="Times,serif" font-size="10.00" fill="#000000">: NUMBER</text>
<polygon fill="none" stroke="#000000" points="235,-110 235,-132 352,-132 352,-110 235,-110"/>
<text text-anchor="start" x="239.762" y="-119" font-family="Times,serif" font-style="italic" text-decoration="underline" font-size="10.00" fill="#000000">drawn_user_id</text>
<text text-anchor="start" x="299.185" y="-119" font-family="Times,serif" font-size="10.00" fill="#000000">: NUMBER</text>
<polygon fill="none" stroke="#000000" points="235,-88 235,-110 352,-110 352,-88 235,-88"/>
<text text-anchor="start" x="240" y="-96" font-family="Times,serif" font-size="10.00" fill="#000000">createdAt: DATE</text>
<polygon fill="none" stroke="#000000" points="235,-66 235,-88 352,-88 352,-66 235,-66"/>
<text text-anchor="start" x="240" y="-74" font-family="Times,serif" font-size="10.00" fill="#000000">updatedAt: DATE</text>
<polygon fill="none" stroke="#000000" points="235,-44 235,-66 352,-66 352,-44 235,-44"/>
<text text-anchor="start" x="240" y="-53" font-family="Times,serif" font-style="italic" text-decoration="underline" font-size="10.00" fill="#000000">userId</text>
<text text-anchor="start" x="264.986" y="-53" font-family="Times,serif" font-size="10.00" fill="#000000">: NUMBER</text>
</g>
<!-- UserGrupo&#45;&gt;User -->
<g id="edge2" class="edge">
<title>UserGrupo&#45;&gt;User</title>
<path fill="none" stroke="#000000" stroke-width=".75" d="M357.8657,-132C406.3829,-132 472.4151,-132 520.7768,-132"/>
<polygon fill="#000000" stroke="#000000" stroke-width=".75" points="357.7393,-132.0001 351.7393,-129.3 354.7393,-132 351.7393,-132 351.7393,-132 351.7393,-132 354.7393,-132 351.7393,-134.7 357.7393,-132.0001 357.7393,-132.0001"/>
</g>
<!-- UserGrupo&#45;&gt;AmGrupo -->
<g id="edge3" class="edge">
<title>UserGrupo&#45;&gt;AmGrupo</title>
<path fill="none" stroke="#000000" stroke-width=".75" d="M228.1919,-132C184.8021,-132 128.7789,-132 90.1717,-132"/>
<polygon fill="#000000" stroke="#000000" stroke-width=".75" points="228.2275,-132.0001 234.2275,-134.7 231.2275,-132 234.2275,-132 234.2275,-132 234.2275,-132 231.2275,-132 234.2274,-129.3 228.2275,-132.0001 228.2275,-132.0001"/>
</g>
</g>
</svg>
